<mxfile host="app.diagrams.net" modified="2023-12-15T02:03:05.654Z" agent="Mozilla/5.0 (Macintosh; Intel Mac OS X 10_15_7) AppleWebKit/537.36 (KHTML, like Gecko) Chrome/120.0.0.0 Safari/537.36" etag="OcsApmNKmYkEdbXxfHZE" version="22.1.8" type="github">
  <diagram name="第 1 页" id="Nc3grYPA5ynb4esPSRQL">
    <mxGraphModel dx="2020" dy="626" grid="1" gridSize="10" guides="1" tooltips="1" connect="1" arrows="1" fold="1" page="1" pageScale="1" pageWidth="827" pageHeight="1169" math="0" shadow="0">
      <root>
        <mxCell id="0" />
        <mxCell id="1" parent="0" />
        <mxCell id="GuH5OVxomVTUl0tzZsFh-1" value="SplashAdView" style="swimlane;fontStyle=1;align=center;verticalAlign=top;childLayout=stackLayout;horizontal=1;startSize=26;horizontalStack=0;resizeParent=1;resizeParentMax=0;resizeLast=0;collapsible=1;marginBottom=0;whiteSpace=wrap;html=1;fillColor=#eeeeee;strokeColor=#36393d;" vertex="1" parent="1">
          <mxGeometry x="470" y="158" width="200" height="70" as="geometry" />
        </mxCell>
        <mxCell id="GuH5OVxomVTUl0tzZsFh-2" value="+init&lt;span style=&quot;background-color: initial;&quot;&gt;(): void&lt;br&gt;&lt;/span&gt;&lt;span style=&quot;border-color: var(--border-color); background-color: initial;&quot;&gt;+loadAd&lt;span style=&quot;border-color: var(--border-color); background-color: initial;&quot;&gt;(callback): void&lt;/span&gt;&lt;br&gt;&lt;/span&gt;" style="text;strokeColor=none;fillColor=none;align=left;verticalAlign=top;spacingLeft=4;spacingRight=4;overflow=hidden;rotatable=0;points=[[0,0.5],[1,0.5]];portConstraint=eastwest;whiteSpace=wrap;html=1;" vertex="1" parent="GuH5OVxomVTUl0tzZsFh-1">
          <mxGeometry y="26" width="200" height="44" as="geometry" />
        </mxCell>
        <mxCell id="GuH5OVxomVTUl0tzZsFh-3" value="&lt;p style=&quot;margin:0px;margin-top:4px;text-align:center;&quot;&gt;«interface»&lt;br style=&quot;border-color: var(--border-color);&quot;&gt;&lt;b style=&quot;border-color: var(--border-color);&quot;&gt;IAdViewCreater&lt;/b&gt;&lt;/p&gt;&lt;hr size=&quot;1&quot;&gt;&lt;p style=&quot;margin:0px;margin-left:4px;&quot;&gt;+&amp;nbsp;createView&lt;span style=&quot;background-color: initial;&quot;&gt;(T): View&lt;/span&gt;&lt;/p&gt;&lt;p style=&quot;margin:0px;margin-left:4px;&quot;&gt;&lt;span style=&quot;background-color: initial;&quot;&gt;+fillData(int):void&lt;/span&gt;&lt;/p&gt;&lt;p style=&quot;margin:0px;margin-left:4px;&quot;&gt;+update&lt;span style=&quot;background-color: initial;&quot;&gt;(T,view):void&lt;/span&gt;&lt;/p&gt;" style="verticalAlign=top;align=left;overflow=fill;fontSize=12;fontFamily=Helvetica;html=1;whiteSpace=wrap;fillColor=#f9f7ed;strokeColor=#36393d;" vertex="1" parent="1">
          <mxGeometry x="140" y="520" width="220" height="100" as="geometry" />
        </mxCell>
        <mxCell id="GuH5OVxomVTUl0tzZsFh-4" value="&lt;i&gt;AbsAdViewCreater&lt;/i&gt;" style="swimlane;fontStyle=1;align=center;verticalAlign=top;childLayout=stackLayout;horizontal=1;startSize=26;horizontalStack=0;resizeParent=1;resizeParentMax=0;resizeLast=0;collapsible=1;marginBottom=0;whiteSpace=wrap;html=1;" vertex="1" parent="1">
          <mxGeometry x="143" y="350" width="220" height="80" as="geometry" />
        </mxCell>
        <mxCell id="GuH5OVxomVTUl0tzZsFh-5" value="+getView(T): View&lt;br&gt;+matchAdContainerView(T,view): View&lt;br&gt;+setUpView(T):void&lt;span style=&quot;background-color: initial;&quot;&gt;&lt;br&gt;&lt;/span&gt;" style="text;strokeColor=none;fillColor=none;align=left;verticalAlign=top;spacingLeft=4;spacingRight=4;overflow=hidden;rotatable=0;points=[[0,0.5],[1,0.5]];portConstraint=eastwest;whiteSpace=wrap;html=1;" vertex="1" parent="GuH5OVxomVTUl0tzZsFh-4">
          <mxGeometry y="26" width="220" height="54" as="geometry" />
        </mxCell>
        <mxCell id="GuH5OVxomVTUl0tzZsFh-6" value="Extends" style="endArrow=block;endSize=16;endFill=0;html=1;rounded=0;entryX=0.5;entryY=0;entryDx=0;entryDy=0;exitX=0.492;exitY=1.012;exitDx=0;exitDy=0;edgeStyle=orthogonalEdgeStyle;exitPerimeter=0;" edge="1" parent="1" source="GuH5OVxomVTUl0tzZsFh-5" target="GuH5OVxomVTUl0tzZsFh-3">
          <mxGeometry width="160" relative="1" as="geometry">
            <mxPoint x="72.40000000000009" y="494.004" as="sourcePoint" />
            <mxPoint x="70.40000000000009" y="430.004" as="targetPoint" />
            <Array as="points">
              <mxPoint x="250" y="431" />
            </Array>
          </mxGeometry>
        </mxCell>
        <mxCell id="GuH5OVxomVTUl0tzZsFh-9" value="&lt;p style=&quot;margin:0px;margin-top:4px;text-align:center;&quot;&gt;«interface»&lt;br style=&quot;border-color: var(--border-color);&quot;&gt;&lt;b style=&quot;border-color: var(--border-color);&quot;&gt;IFinishCallBack&lt;/b&gt;&lt;/p&gt;&lt;hr size=&quot;1&quot;&gt;&lt;p style=&quot;margin:0px;margin-left:4px;&quot;&gt;+&amp;nbsp;onFinish&lt;span style=&quot;background-color: initial;&quot;&gt;(): void&lt;/span&gt;&lt;/p&gt;&lt;p style=&quot;margin:0px;margin-left:4px;&quot;&gt;&lt;span style=&quot;background-color: initial;&quot;&gt;+&lt;/span&gt;onSkipRect(rect,view):void&lt;/p&gt;" style="verticalAlign=top;align=left;overflow=fill;fontSize=12;fontFamily=Helvetica;html=1;whiteSpace=wrap;fillColor=#f9f7ed;strokeColor=#36393d;" vertex="1" parent="1">
          <mxGeometry x="-160" y="144" width="200" height="81" as="geometry" />
        </mxCell>
        <mxCell id="GuH5OVxomVTUl0tzZsFh-10" value="Extends" style="endArrow=block;endSize=16;endFill=0;html=1;rounded=0;edgeStyle=orthogonalEdgeStyle;entryX=1;entryY=0.5;entryDx=0;entryDy=0;exitX=0.013;exitY=0.34;exitDx=0;exitDy=0;exitPerimeter=0;" edge="1" parent="1" target="GuH5OVxomVTUl0tzZsFh-9">
          <mxGeometry width="160" relative="1" as="geometry">
            <mxPoint x="162.5999999999999" y="184.96000000000004" as="sourcePoint" />
            <mxPoint x="-10" y="350" as="targetPoint" />
          </mxGeometry>
        </mxCell>
        <mxCell id="GuH5OVxomVTUl0tzZsFh-11" value="Extends" style="endArrow=block;endSize=16;endFill=0;html=1;rounded=0;entryX=0.5;entryY=0;entryDx=0;entryDy=0;exitX=0.481;exitY=0.999;exitDx=0;exitDy=0;edgeStyle=orthogonalEdgeStyle;exitPerimeter=0;" edge="1" parent="1" target="GuH5OVxomVTUl0tzZsFh-4">
          <mxGeometry width="160" relative="1" as="geometry">
            <mxPoint x="256.20000000000005" y="279.856" as="sourcePoint" />
            <mxPoint x="-59.59999999999991" y="300.004" as="targetPoint" />
            <Array as="points">
              <mxPoint x="253" y="280" />
            </Array>
          </mxGeometry>
        </mxCell>
        <mxCell id="GuH5OVxomVTUl0tzZsFh-12" value="SplashSDKDownloadControl" style="swimlane;fontStyle=1;align=center;verticalAlign=top;childLayout=stackLayout;horizontal=1;startSize=26;horizontalStack=0;resizeParent=1;resizeParentMax=0;resizeLast=0;collapsible=1;marginBottom=0;whiteSpace=wrap;html=1;fillColor=#eeeeee;strokeColor=#36393d;" vertex="1" parent="1">
          <mxGeometry x="-180" y="290" width="220" height="70" as="geometry" />
        </mxCell>
        <mxCell id="GuH5OVxomVTUl0tzZsFh-13" value="+doDownload(): void&lt;br&gt;+showSplashAD() void&lt;span style=&quot;background-color: initial;&quot;&gt;&lt;br&gt;&lt;/span&gt;" style="text;strokeColor=none;fillColor=none;align=left;verticalAlign=top;spacingLeft=4;spacingRight=4;overflow=hidden;rotatable=0;points=[[0,0.5],[1,0.5]];portConstraint=eastwest;whiteSpace=wrap;html=1;" vertex="1" parent="GuH5OVxomVTUl0tzZsFh-12">
          <mxGeometry y="26" width="220" height="44" as="geometry" />
        </mxCell>
        <mxCell id="GuH5OVxomVTUl0tzZsFh-15" value="" style="endArrow=open;html=1;endSize=12;startArrow=diamondThin;startSize=14;startFill=0;edgeStyle=orthogonalEdgeStyle;align=left;verticalAlign=bottom;rounded=0;entryX=-0.005;entryY=0.56;entryDx=0;entryDy=0;entryPerimeter=0;exitX=1.005;exitY=0.273;exitDx=0;exitDy=0;exitPerimeter=0;" edge="1" parent="1" source="GuH5OVxomVTUl0tzZsFh-13" target="GuH5OVxomVTUl0tzZsFh-21">
          <mxGeometry x="-1" y="3" relative="1" as="geometry">
            <mxPoint x="-100" y="450" as="sourcePoint" />
            <mxPoint x="160" y="224.99199999999996" as="targetPoint" />
          </mxGeometry>
        </mxCell>
        <mxCell id="GuH5OVxomVTUl0tzZsFh-18" value="SplashViewCreater" style="swimlane;fontStyle=1;align=center;verticalAlign=top;childLayout=stackLayout;horizontal=1;startSize=30;horizontalStack=0;resizeParent=1;resizeParentMax=0;resizeLast=0;collapsible=1;marginBottom=0;whiteSpace=wrap;html=1;fillColor=#eeeeee;strokeColor=#36393d;" vertex="1" parent="1">
          <mxGeometry x="160" y="70" width="210" height="228" as="geometry" />
        </mxCell>
        <mxCell id="GuH5OVxomVTUl0tzZsFh-19" value="-mSplashAdControl&lt;span style=&quot;background-color: initial;&quot;&gt;: class&lt;br&gt;&lt;/span&gt;-mSplashdata:entity&lt;br&gt;-adShadowLayer" style="text;strokeColor=none;fillColor=none;align=left;verticalAlign=top;spacingLeft=4;spacingRight=4;overflow=hidden;rotatable=0;points=[[0,0.5],[1,0.5]];portConstraint=eastwest;whiteSpace=wrap;html=1;" vertex="1" parent="GuH5OVxomVTUl0tzZsFh-18">
          <mxGeometry y="30" width="210" height="50" as="geometry" />
        </mxCell>
        <mxCell id="GuH5OVxomVTUl0tzZsFh-20" value="" style="line;strokeWidth=1;fillColor=none;align=left;verticalAlign=middle;spacingTop=-1;spacingLeft=3;spacingRight=3;rotatable=0;labelPosition=right;points=[];portConstraint=eastwest;strokeColor=inherit;" vertex="1" parent="GuH5OVxomVTUl0tzZsFh-18">
          <mxGeometry y="80" width="210" height="8" as="geometry" />
        </mxCell>
        <mxCell id="GuH5OVxomVTUl0tzZsFh-21" value="+init(): void&lt;br style=&quot;border-color: var(--border-color);&quot;&gt;&lt;span style=&quot;border-color: var(--border-color); background-color: initial;&quot;&gt;+loadAd&lt;span style=&quot;border-color: var(--border-color); background-color: initial;&quot;&gt;(callback): void&lt;br style=&quot;border-color: var(--border-color);&quot;&gt;&lt;/span&gt;+onFinish():void&lt;br style=&quot;border-color: var(--border-color);&quot;&gt;+onSkipRect(rect,view):void&lt;br style=&quot;border-color: var(--border-color);&quot;&gt;+ createView(T): View&lt;br style=&quot;border-color: var(--border-color);&quot;&gt;+fillData(T,view):void&lt;br style=&quot;border-color: var(--border-color);&quot;&gt;+update(T,view):view&lt;br style=&quot;border-color: var(--border-color);&quot;&gt;+showAd():void&lt;br style=&quot;border-color: var(--border-color);&quot;&gt;+loadsdk(callback):void&lt;/span&gt;" style="text;strokeColor=none;fillColor=none;align=left;verticalAlign=top;spacingLeft=4;spacingRight=4;overflow=hidden;rotatable=0;points=[[0,0.5],[1,0.5]];portConstraint=eastwest;whiteSpace=wrap;html=1;" vertex="1" parent="GuH5OVxomVTUl0tzZsFh-18">
          <mxGeometry y="88" width="210" height="140" as="geometry" />
        </mxCell>
        <mxCell id="GuH5OVxomVTUl0tzZsFh-22" value="" style="endArrow=open;html=1;endSize=12;startArrow=diamondThin;startSize=14;startFill=0;edgeStyle=orthogonalEdgeStyle;align=left;verticalAlign=bottom;rounded=0;entryX=0;entryY=0.5;entryDx=0;entryDy=0;exitX=0.99;exitY=0.343;exitDx=0;exitDy=0;exitPerimeter=0;" edge="1" parent="1" source="GuH5OVxomVTUl0tzZsFh-21" target="GuH5OVxomVTUl0tzZsFh-2">
          <mxGeometry x="-1" y="3" relative="1" as="geometry">
            <mxPoint x="190" y="220" as="sourcePoint" />
            <mxPoint x="350" y="220" as="targetPoint" />
          </mxGeometry>
        </mxCell>
      </root>
    </mxGraphModel>
  </diagram>
</mxfile>
